<?xml version="1.0" encoding="utf-8"?>
<!-- Generator: Adobe Illustrator 16.0.0, SVG Export Plug-In . SVG Version: 6.00 Build 0)  -->
<!DOCTYPE svg PUBLIC "-//W3C//DTD SVG 1.1//EN" "http://www.w3.org/Graphics/SVG/1.1/DTD/svg11.dtd">
<svg version="1.1" id="Layer_1" xmlns="http://www.w3.org/2000/svg" xmlns:xlink="http://www.w3.org/1999/xlink" x="0px" y="0px"
	 width="50px" height="100px" viewBox="0 0 50 100" enable-background="new 0 0 50 100" xml:space="preserve">
<g>
	<g>
		<path fill="#5F6670" d="M2.731,43.378c-0.467,1.113-0.214,2.397,0.639,3.251c0.854,0.854,2.138,1.106,3.251,0.64l10.879-4.562
			L7.293,32.499L2.731,43.378z"/>
		<path fill="#5F6670" d="M46.63,10.727L39.272,3.37c-1.16-1.16-3.042-1.16-4.203,0L10.018,28.422
			c-0.006,0.006-0.012,0.014-0.018,0.02L21.559,40c0.006-0.007,0.013-0.013,0.02-0.018L46.63,14.931
			C47.79,13.771,47.79,11.888,46.63,10.727z"/>
	</g>
</g>
<g>
	<path fill="#5F6670" d="M45.809,57.854l-1.205-1.035c-2-1.719-5.005-1.527-6.771,0.432l-20.157,22.35l-6.084-5.24
		c-1.998-1.721-5.004-1.533-6.772,0.423l-1.065,1.18c-0.864,0.955-1.313,2.216-1.247,3.503c0.066,1.286,0.64,2.494,1.597,3.358
		l11.153,10.213c0.966,0.907,2.26,1.38,3.583,1.31s2.56-0.678,3.424-1.682l24.062-27.959c0.841-0.977,1.259-2.247,1.162-3.532
		S46.786,58.694,45.809,57.854z"/>
</g>
</svg>
