<?xml version="1.0" encoding="utf-8"?>
<!-- Generator: Adobe Illustrator 16.0.0, SVG Export Plug-In . SVG Version: 6.00 Build 0)  -->
<!DOCTYPE svg PUBLIC "-//W3C//DTD SVG 1.1//EN" "http://www.w3.org/Graphics/SVG/1.1/DTD/svg11.dtd">
<svg version="1.1" id="Layer_1" xmlns="http://www.w3.org/2000/svg" xmlns:xlink="http://www.w3.org/1999/xlink" x="0px" y="0px"
	 width="150px" height="150px" viewBox="0 0 150 150" enable-background="new 0 0 150 150" xml:space="preserve">
<g>
	<g id="Icons_8_">
		<path fill="#5E6570" d="M145.57,120.607l-15.381-27.31V61.155c0-6.974-5.676-12.648-12.65-12.648h-10.533V33.944h7.104
			c4.762,0,8.632-3.873,8.632-8.634V15.6c0-4.761-3.87-8.633-8.632-8.633H85.188c-4.762,0-8.631,3.872-8.631,8.633v9.71
			c0,4.761,3.869,8.634,8.631,8.634h7.104v14.563H32.461c-6.975,0-12.651,5.674-12.651,12.648v32.144L4.429,120.609
			c-2.615,4.635-2.567,10.373,0.116,14.972c2.686,4.599,7.664,7.453,12.989,7.453h114.931c5.325,0,10.303-2.854,12.989-7.453
			C148.139,130.982,148.186,125.243,145.57,120.607z M86.412,26.201c-0.686,0-1.249-0.561-1.249-1.251v-9.52
			c0-0.689,0.563-1.25,1.249-1.25h28.354c0.691,0,1.25,0.561,1.25,1.25v9.519c0,0.69-0.559,1.251-1.25,1.251L86.412,26.201
			L86.412,26.201z M116.104,81.497H36.744v-19.38h79.359V81.497z"/>
	</g>
</g>
</svg>
